HIERARCHY
ROOT pelvis
{
  OFFSET 0 100 0
  CHANNELS 6 Xposition Yposition Zposition Zrotation Xrotation Yrotation
  JOINT pelvis_right_femur
  {
    OFFSET -10.78128 -3.44521 -0.5502486
    CHANNELS 3 Zrotation Xrotation Yrotation
    JOINT right_femur_tibia
    {
      OFFSET -0.8047443 -44.0398 -0.1307829
      CHANNELS 3 Zrotation Xrotation Yrotation
      JOINT right_tibia_foot
      {
        OFFSET 3.006224 -47.83518 -5
        CHANNELS 3 Zrotation Xrotation Yrotation
        End Site
        {
          OFFSET 0 -5 15
        }
      }
    }
  }
  JOINT pelvis_left_femur
  {
    OFFSET 10.78128 -3.44521 -0.5502486
    CHANNELS 3 Zrotation Xrotation Yrotation
    JOINT left_femur_tibia
    {
      OFFSET 0.8047443 -44.0398 -0.1307829
      CHANNELS 3 Zrotation Xrotation Yrotation
      JOINT left_tibia_foot
      {
        OFFSET -4.370144 -48.10324 -4.275266
        CHANNELS 3 Zrotation Xrotation Yrotation
        End Site
        {
          OFFSET 0 -5 15
        }
      }
    }
  }
  JOINT pelvis_spine1
  {
    OFFSET 0 6.468898 -3.129235
    CHANNELS 3 Zrotation Xrotation Yrotation
    JOINT spine1
    {
      OFFSET 0 23.15396 4.99043
      CHANNELS 3 Zrotation Xrotation Yrotation
      JOINT spine2
      {
        OFFSET 0 20.79997 -5.064912
        CHANNELS 3 Zrotation Xrotation Yrotation
        JOINT neck
        {
          OFFSET 0 14.38658 9.616178
          CHANNELS 3 Zrotation Xrotation Yrotation
          End Site
          {
            OFFSET 0 20 0
          }
        }
      }
      JOINT right_manubrium
      {
        OFFSET -5.722621 16.35077 3.967754
        CHANNELS 3 Zrotation Xrotation Yrotation
        JOINT right_clavicle
        {
          OFFSET -13.16364 1.694482 -4.693211
          CHANNELS 3 Zrotation Xrotation Yrotation
          JOINT right_humerus
          {
            OFFSET -28.5034 -0.3100689 -2.792744
            CHANNELS 3 Zrotation Xrotation Yrotation
            JOINT right_radius
            {
              OFFSET -25.15693 0.02248979 -1.271978
              CHANNELS 3 Zrotation Xrotation Yrotation
              End Site
              {
                OFFSET -15 0 0
              }
            }
          }
        }
      }
      JOINT left_manubrium
      {
        OFFSET 5.722621 16.35077 3.967754
        CHANNELS 3 Zrotation Xrotation Yrotation
        JOINT left_clavicle
        {
          OFFSET 13.16364 1.694482 -4.693211
          CHANNELS 3 Zrotation Xrotation Yrotation
          JOINT left_humerus
          {
            OFFSET 29.39168 -1.063119 -2.237045
            CHANNELS 3 Zrotation Xrotation Yrotation
            JOINT left_radius
            {
              OFFSET 24.59957 -0.9528479 0.9047498
              CHANNELS 3 Zrotation Xrotation Yrotation
              End Site
              {
                OFFSET 15 -0 -0
              }
            }
          }
        }
      }
    }
  }
}
MOTION
Frames: 9
Frame Time: 0.0416666666667
0 103.5113 0 2.223797 -1.129229 0.2857386 1.173991 -9.984394 8.618948 -0 33.58772 -0 -5.228983 -17.80923 -2.156179 -8.085863 10.09426 -23.41755 -0 5.309958 -0 7.595112 -16.15691 26.45545 -4.365652 -5.081309 4.990763 2.033119 9.212649 -7.723762 0.8344911 22.78928 7.176448 3.261358 -23.09111 8.797184 6.35011 -19.70492 11.56814 86.35275 35.95603 -19.86089 -0 0 16.164 -7.583327 8.259385 4.612091 5.546398 -19.50531 -1.689202 -94.74558 29.74021 22.82656 0 0 -16.1225 3.520056 17.87505 9.522021
0.3575285 103.3689 1.482798 2.157932 -0.8990525 0.508812 1.2957 -10.66357 8.324881 -0 31.75995 -0 -5.214306 -17.18899 -1.843569 -8.045246 10.23041 -23.13469 -0 5.737893 -0 7.286851 -16.38514 26.04226 -4.340999 -4.962161 4.993022 2.126012 9.183866 -7.712296 0.8488405 22.66289 7.197875 3.298862 -23.18726 8.803293 6.2924 -19.55096 11.54868 86.42871 35.95314 -20.03645 -0 0 15.90063 -7.635286 8.324197 4.627786 5.680971 -19.5916 -1.681825 -94.58425 29.68989 22.51786 0 0 -16.58354 3.594987 17.73548 9.442406
0.7386392 103.1851 3.166347 2.075434 -0.5849305 0.7288777 1.432629 -11.47281 7.912637 -0 29.1419 -0 -5.206089 -16.34633 -1.389557 -8.000526 10.4048 -22.71528 -0 6.442257 -0 6.818977 -16.64296 25.42117 -4.300209 -4.81991 4.996825 2.244332 9.145366 -7.696455 0.8629307 22.50018 7.225743 3.346905 -23.30149 8.803443 6.208129 -19.33105 11.51605 86.5512 35.94893 -20.2876 -0 0 15.52176 -7.712524 8.421029 4.654276 5.853334 -19.71117 -1.674017 -94.361 29.61853 22.09771 0 0 -17.18381 3.682704 17.53976 9.344762
1.147731 102.9577 5.10757 1.98543 -0.2056133 0.9601185 1.562465 -12.29665 7.401718 -0 25.84066 -0 -5.214389 -15.33798 -0.8099175 -7.958912 10.59163 -22.16629 -0 7.455466 -0 6.193153 -16.87799 24.59917 -4.24096 -4.672024 5.003375 2.376522 9.100605 -7.676365 0.8727841 22.31607 7.257363 3.400604 -23.41771 8.792693 6.100205 -19.05418 11.47045 86.72096 35.94333 -20.60245 -0 0 15.04145 -7.815698 8.549047 4.694018 6.045972 -19.85639 -1.667663 -94.08942 29.52753 21.59502 0 0 -17.87029 3.770118 17.29589 9.241447
1.588749 102.6895 7.353892 1.893778 0.2132127 1.215727 1.670595 -13.02149 6.816508 -0 22.01602 -0 -5.249695 -14.23095 -0.1299945 -7.923114 10.74694 -21.49895 -0 8.817044 -0 5.416684 -17.02988 23.59307 -4.159888 -4.530251 5.015985 2.51171 9.054481 -7.650764 0.8745183 22.12478 7.289638 3.454724 -23.52097 8.765888 5.973823 -18.73288 11.4155 86.93222 35.93666 -20.96133 -0 0 14.48006 -7.948319 8.707257 4.751378 6.23976 -20.01619 -1.664989 -93.78696 29.41704 21.04555 0 0 -18.58832 3.845471 17.01114 9.145094
2.064813 102.3915 9.939627 1.804504 0.6335219 1.502162 1.748623 -13.50457 6.190275 -0 17.90155 -0 -5.323068 -13.11514 0.6132646 -7.890311 10.79362 -20.72681 -0 10.60239 -0 4.499658 -17.01321 22.42785 -4.050609 -4.402627 5.04155 2.637439 9.014539 -7.616169 0.8630166 21.94276 7.31847 3.50255 -23.59363 8.715741 5.837219 -18.38424 11.359 87.17225 35.93062 -21.3333 -0 0 13.86572 -8.119267 8.895574 4.834617 6.409315 -20.17352 -1.669363 -93.47764 29.2859 20.49847 0 0 -19.27029 3.895352 16.69156 9.071926
2.577469 102.0862 12.88333 1.721509 1.005281 1.814196 1.793902 -13.56657 5.565219 -0 13.79622 -0 -5.444307 -12.10369 1.373384 -7.851384 10.62149 -19.86427 -0 12.92825 -0 3.455518 -16.71545 21.13643 -3.903526 -4.294996 5.090521 2.739036 8.990915 -7.566922 0.8316001 21.78944 7.338722 3.535772 -23.61425 8.632425 5.701205 -18.02934 11.31218 87.42254 35.92866 -21.67701 -0 0 13.23311 -8.343035 9.115114 4.95611 6.522374 -20.30547 -1.685452 -93.19138 29.13217 20.01603 0 0 -19.83378 3.903877 16.34189 9.04233
3.126073 101.8093 16.18806 1.649575 1.278241 2.13362 1.809424 -13.03473 4.984173 -0 9.998885 -0 -5.617632 -11.30786 2.104073 -7.792196 10.11733 -18.92638 -0 15.90596 -0 2.306944 -16.02788 19.76138 -3.709614 -4.210988 5.173892 2.802499 8.993668 -7.496899 0.7739444 21.68329 7.345295 3.546522 -23.56241 8.506432 5.576328 -17.68978 11.28645 87.66251 35.93479 -21.9496 -0 0 12.61791 -8.635398 9.36676 5.128956 6.547864 -20.38901 -1.717829 -92.95706 28.95447 19.65942 0 0 -20.19978 3.856496 15.96618 9.075615
3.707749 101.605 19.84431 1.594814 1.416901 2.432983 1.800576 -11.80093 4.478773 -0 6.72488 -0 -5.837703 -10.80476 2.77106 -7.697285 9.200882 -17.92877 -0 19.56976 -0 1.091563 -14.88994 18.35656 -3.466373 -4.151199 5.299772 2.818265 9.02924 -7.401279 0.6869439 21.63648 7.334403 3.530113 -23.42512 8.332472 5.469174 -17.38427 11.28941 87.87222 35.95169 -22.11577 -0 0 12.0518 -9.008753 9.649119 5.362982 6.467338 -20.40833 -1.768609 -92.7939 28.7528 19.47063 0 0 -20.31762 3.745131 15.56863 9.182939
